<?xml version="1.0" encoding="UTF-8" standalone="no"?>
<svg
   xmlns:dc="http://purl.org/dc/elements/1.1/"
   xmlns:cc="http://creativecommons.org/ns#"
   xmlns:rdf="http://www.w3.org/1999/02/22-rdf-syntax-ns#"
   xmlns:svg="http://www.w3.org/2000/svg"
   xmlns="http://www.w3.org/2000/svg"
   xmlns:sodipodi="http://sodipodi.sourceforge.net/DTD/sodipodi-0.dtd"
   xmlns:inkscape="http://www.inkscape.org/namespaces/inkscape"
   version="1.1"
   id="svg911"
   width="1024"
   height="1024"
   viewBox="0 0 1024 1024"
   sodipodi:docname="credits.svg"
   inkscape:version="1.0.2 (e86c870879, 2021-01-15)">
  <metadata
     id="metadata917">
    <rdf:RDF>
      <cc:Work
         rdf:about="">
        <dc:format>image/svg+xml</dc:format>
        <dc:type
           rdf:resource="http://purl.org/dc/dcmitype/StillImage" />
        <dc:title></dc:title>
      </cc:Work>
    </rdf:RDF>
  </metadata>
  <defs
     id="defs915" />
  <sodipodi:namedview
     pagecolor="#ffffff"
     bordercolor="#666666"
     borderopacity="1"
     objecttolerance="10"
     gridtolerance="10"
     guidetolerance="10"
     inkscape:pageopacity="0"
     inkscape:pageshadow="2"
     inkscape:window-width="1920"
     inkscape:window-height="1080"
     id="namedview913"
     showgrid="false"
     inkscape:zoom="0.30694235"
     inkscape:cx="253.22155"
     inkscape:cy="815.9971"
     inkscape:window-x="3840"
     inkscape:window-y="0"
     inkscape:window-maximized="0"
     inkscape:current-layer="g919" />
  <g
     inkscape:groupmode="layer"
     inkscape:label="Image"
     id="g919">
    <path
       style="fill:#000000"
       d="M 492.94972,1023.2445 C 408.37502,1019.5322 328.63106,996.60341 256.85349,955.35986 217.14094,932.54095 183.97576,907.02164 150.4095,873.45538 116.48612,839.53204 91.242121,806.6339 67.850421,765.86398 4.4353213,655.33655 -15.214679,523.79042 13.008821,398.72984 c 15.4511,-68.46463 46.0857,-135.15149 87.897499,-191.33928 16.0435,-21.5596 29.4258,-36.97673 49.48462,-57.0087 42.3472,-42.29057 86.10804,-73.469149 139.01536,-99.045182 134.52538,-65.031189 291.56781,-67.964467 427.92142,-7.992823 112.05034,49.282474 202.27723,136.274685 255.17607,246.027885 68.09851,141.28918 68.09851,303.79766 0,445.08684 -25.35102,52.59767 -56.92677,96.93299 -99.00221,139.00844 -20.08018,20.08017 -35.53232,33.49212 -57.02726,49.49775 -56.00396,41.70185 -122.68203,72.33513 -191.33928,87.90523 -42.17152,9.5637 -91.34606,14.1671 -132.18532,12.3745 z m 3,-102.36997 c 21.07342,-3.32483 41.24857,-14.92683 61.5,-35.36645 19.95578,-20.14122 36.45297,-43.5086 49.48503,-70.09292 16.8748,-34.42317 22.94077,-57.82904 21.51067,-83 -2.14792,-37.80523 -12.15504,-65.42638 -31.41371,-86.7065 -27.22474,-30.08234 -77.36723,-41.74873 -119.2205,-27.73841 -10.00853,3.35034 -31.65539,14.19142 -39.57641,19.82047 -14.88354,10.57694 -29.39348,26.43241 -35.76162,39.07786 -6.17909,12.27003 -8.39049,25.40018 -6.57628,39.04658 2.13004,16.02202 8.41777,24.58592 24.24503,33.02176 l 5.72739,3.05267 4.8616,-2.46356 c 8.3233,-4.21773 16.65702,-5.90429 29.2188,-5.91323 17.68459,-0.0126 27.82693,3.36751 37.04439,12.34559 6.97705,6.79586 9.93343,13.51892 9.94584,22.61768 0.0188,13.74902 -5.1041,24.53398 -16.87741,35.53135 -8.77102,8.19295 -15.46093,12.07788 -28.76231,16.70269 -17.39635,6.0486 -26.69162,11.51694 -30.89477,18.17516 -7.07945,11.21457 -7.2514,34.60929 -0.35377,48.12977 8.92756,17.49947 38.34639,28.1064 65.89803,23.75949 z m 59.5,-652.30485 c 18.51339,-5.16646 31.97268,-15.83329 39.86089,-31.59074 7.17543,-14.33363 8.13911,-20.26123 8.13911,-50.06378 0,-21.18316 -0.30919,-26.81822 -1.82641,-33.28688 -5.8127,-24.78227 -24.60444,-43.57401 -49.38671,-49.38671 -6.43804,-1.51004 -11.85755,-1.81387 -31.28688,-1.754 -26.57709,0.0819 -32.78735,1.15033 -47,8.08608 -9.25622,4.51702 -21.01874,15.88421 -25.71283,24.84863 -6.60953,12.62239 -7.54315,18.15051 -8.02083,47.49288 -0.38558,23.68495 -0.21821,27.53795 1.57557,36.27088 5.29371,25.77209 20.22744,42.19787 44.20316,48.61953 11.13101,2.98133 10.55038,2.94033 37.95493,2.68038 20.22708,-0.19186 26.74069,-0.58811 31.5,-1.91627 z"
       id="path1484" />
  </g>
</svg>
