<?xml version="1.0" encoding="UTF-8" standalone="no"?>
<svg
   xmlns:dc="http://purl.org/dc/elements/1.1/"
   xmlns:cc="http://creativecommons.org/ns#"
   xmlns:rdf="http://www.w3.org/1999/02/22-rdf-syntax-ns#"
   xmlns:svg="http://www.w3.org/2000/svg"
   xmlns="http://www.w3.org/2000/svg"
   xmlns:sodipodi="http://sodipodi.sourceforge.net/DTD/sodipodi-0.dtd"
   xmlns:inkscape="http://www.inkscape.org/namespaces/inkscape"
   version="1.1"
   id="svg1171"
   width="1024"
   height="1024"
   viewBox="0 0 1024 1024"
   sodipodi:docname="kp.svg"
   inkscape:version="1.0.2 (e86c870879, 2021-01-15)">
  <metadata
     id="metadata1177">
    <rdf:RDF>
      <cc:Work
         rdf:about="">
        <dc:format>image/svg+xml</dc:format>
        <dc:type
           rdf:resource="http://purl.org/dc/dcmitype/StillImage" />
        <dc:title></dc:title>
      </cc:Work>
    </rdf:RDF>
  </metadata>
  <defs
     id="defs1175" />
  <sodipodi:namedview
     pagecolor="#ffffff"
     bordercolor="#666666"
     borderopacity="1"
     objecttolerance="10"
     gridtolerance="10"
     guidetolerance="10"
     inkscape:pageopacity="0"
     inkscape:pageshadow="2"
     inkscape:window-width="1920"
     inkscape:window-height="1080"
     id="namedview1173"
     showgrid="false"
     inkscape:zoom="0.43408203"
     inkscape:cx="462.17993"
     inkscape:cy="625.56569"
     inkscape:window-x="3840"
     inkscape:window-y="0"
     inkscape:window-maximized="0"
     inkscape:current-layer="g1179" />
  <g
     inkscape:groupmode="layer"
     inkscape:label="Image"
     id="g1179">
    <path
       style="fill:#000000"
       d="m 141.69654,766.32111 c -16.61823,-4.04656 -28.76508,-17.4085 -31.46486,-34.6124 -1.34848,-8.593 -1.41603,-427.1036 -0.0703,-435.32077 2.77303,-16.93188 15.13478,-30.77724 31.41357,-35.1837 9.5869,-2.59505 23.17972,-1.79436 31.05168,1.82911 11.56091,5.3215 18.91194,13.6746 22.67531,25.76632 1.80629,5.80362 1.89705,10.89365 1.94796,109.24813 l 0.0534,103.16091 43.03629,-43.5 c 23.66996,-23.925 75.05846,-76.04235 114.19656,-115.81634 39.1382,-39.77399 73.751,-74.28033 76.9173,-76.68076 8.4359,-6.39535 15.4462,-8.82511 25.7431,-8.9225 7.1713,-0.0678 9.3668,0.3262 14.0456,2.52071 7.174,3.3649 11.921,7.5992 16.9323,15.10366 8.7867,13.15825 10.2292,27.27744 4.1322,40.44618 -2.989,6.45605 -6.0526,9.68635 -53.3906,56.29646 -27.6207,27.19607 -63.3853,62.52107 -79.4769,78.5 l -29.2573,29.05259 78.1316,106.5 c 42.9723,58.575 79.1442,108.08923 80.382,110.03162 3.3032,5.18374 7.2783,16.87772 8.0471,23.67298 1.4311,12.64914 -3.5691,25.15957 -14.0963,35.26824 -17.9412,17.22804 -43.5187,18.59376 -59.4499,3.17434 -3.5077,-3.395 -35.8784,-46.50542 -81.1673,-108.09638 -41.4329,-56.34705 -75.8734,-103.14705 -76.5345,-104 -1.0235,-1.32057 -6.1782,3.41749 -34.72146,31.91508 l -33.51952,33.46588 -0.27853,62.53412 c -0.27693,62.17551 -0.29139,62.56566 -2.52141,68.03412 -8.26248,20.26131 -30.46559,31.04042 -52.75712,25.6124 z m 458.73014,-0.0956 c -2.8984,-0.81728 -6.4984,-2.12268 -8,-2.90089 -5.2601,-2.7261 -11.904,-9.52687 -15.0218,-15.37643 -6.6583,-12.49219 -6.2083,4.48413 -6.2083,-234.23948 0,-234.0545 -0.2724,-221.66533 5.1046,-232.20513 3.2989,-6.46642 11.9764,-14.46493 19.6215,-18.08626 l 6.7739,-3.20861 91,-0.27937 c 57.8092,-0.17748 93.3987,0.0896 97.5765,0.73216 35.8923,5.52053 71.7833,30.3141 94.8858,65.54721 6.8538,10.45266 17.2058,31.84616 20.4328,42.22656 13.5049,43.44205 10.2846,90.07741 -8.9958,130.27344 -8.8884,18.53057 -18.8541,32.60826 -33.3229,47.07245 -19.4176,19.41144 -37.4054,30.24106 -61.0764,36.77132 l -9.5,2.62081 -70.75,0.3057 -70.75,0.30569 -0.017,71.21201 c -0.019,77.64044 -0.1464,79.65676 -5.6868,89.98454 -6.6146,12.33005 -18.05,19.47721 -32.4312,20.26944 -5.6508,0.3113 -10.0744,-0.0213 -13.6345,-1.02517 z m 187.8721,-266.14514 c 13.1822,-6.24604 26.8058,-22.04315 34.1104,-39.55225 5.9259,-14.20442 7.2908,-21.40784 7.2607,-38.31941 -0.022,-12.5653 -0.3974,-16.29851 -2.3106,-23 -2.9319,-10.27022 -9.8919,-24.96508 -15.6388,-33.01862 -5.2983,-7.42489 -15.7733,-16.45141 -23.5239,-20.27095 l -5.5,-2.71043 -65.25,-0.2844 -65.25,-0.2844 v 80.56904 80.56904 l 64.75,-0.28464 64.75,-0.28464 z"
       id="path1744" />
  </g>
</svg>
