<?xml version="1.0" encoding="UTF-8" standalone="no"?>
<svg
   xmlns:dc="http://purl.org/dc/elements/1.1/"
   xmlns:cc="http://creativecommons.org/ns#"
   xmlns:rdf="http://www.w3.org/1999/02/22-rdf-syntax-ns#"
   xmlns:svg="http://www.w3.org/2000/svg"
   xmlns="http://www.w3.org/2000/svg"
   xmlns:sodipodi="http://sodipodi.sourceforge.net/DTD/sodipodi-0.dtd"
   xmlns:inkscape="http://www.inkscape.org/namespaces/inkscape"
   version="1.1"
   id="svg1854"
   width="1024"
   height="1024"
   viewBox="0 0 1024 1024"
   sodipodi:docname="ta.svg"
   inkscape:version="1.0.2 (e86c870879, 2021-01-15)">
  <metadata
     id="metadata1860">
    <rdf:RDF>
      <cc:Work
         rdf:about="">
        <dc:format>image/svg+xml</dc:format>
        <dc:type
           rdf:resource="http://purl.org/dc/dcmitype/StillImage" />
        <dc:title></dc:title>
      </cc:Work>
    </rdf:RDF>
  </metadata>
  <defs
     id="defs1858" />
  <sodipodi:namedview
     pagecolor="#ffffff"
     bordercolor="#666666"
     borderopacity="1"
     objecttolerance="10"
     gridtolerance="10"
     guidetolerance="10"
     inkscape:pageopacity="0"
     inkscape:pageshadow="2"
     inkscape:window-width="1920"
     inkscape:window-height="1080"
     id="namedview1856"
     showgrid="false"
     inkscape:zoom="0.43408203"
     inkscape:cx="236.16157"
     inkscape:cy="620.3702"
     inkscape:window-x="3840"
     inkscape:window-y="0"
     inkscape:window-maximized="0"
     inkscape:current-layer="g1862" />
  <g
     inkscape:groupmode="layer"
     inkscape:label="Image"
     id="g1862">
    <path
       style="fill:#000000"
       d="m 513.26571,767.31509 c -2.3176,-0.7244 -6.2741,-2.5243 -8.7921,-4 -13.0378,-7.6407 -18.199,-28.5139 -11.6334,-47.0493 5.4927,-15.5067 176.2915,-437.05882 178.8675,-441.46684 3.6608,-6.26409 11.0537,-13.36314 17.3913,-16.70007 5.0775,-2.67343 6.0862,-2.83307 17.9017,-2.83307 12.08,0 12.7493,0.11301 19,3.20834 8.3169,4.11843 15.8309,10.75554 19.1606,16.92431 4.033,7.472 177.506,434.04733 179.2688,440.82743 5.0329,19.3578 -3.4559,39.2986 -20.7134,48.6575 -6.0117,3.2602 -6.6344,3.3824 -17.237,3.3824 -10.6279,0 -11.2136,-0.1158 -17.3126,-3.4227 -6.6332,-3.5965 -13.6305,-10.5376 -17.4289,-17.289 -1.2422,-2.2079 -10.8194,-24.551 -21.2827,-49.65133 l -19.0241,-45.63695 h -105.2971 -105.2972 l -19.3699,46.81188 c -10.6535,25.7465 -20.5053,48.7491 -21.8929,51.1169 -3.7279,6.3612 -12.6895,14.0889 -19.1355,16.5006 -6.5036,2.4334 -20.359,2.7494 -27.1731,0.6199 z m 262.714,-200.12142 c 0,-0.31468 -15.8273,-38.37062 -35.1718,-84.56874 -24.3068,-58.04909 -35.4305,-83.53418 -36.0095,-82.49967 -0.5985,1.06941 -63.979,154.94566 -68.5351,166.39055 -0.3952,0.99285 13.9251,1.25 69.6094,1.25 38.5589,0 70.107,-0.25746 70.107,-0.57214 z m -492,196.82552 c -15.04737,-4.0898 -25.67043,-14.155 -30.17726,-28.5925 -1.73737,-5.5656 -1.82274,-14.9423 -1.82274,-200.21357 V 340.83861 l -61.25,-0.2864 c -60.50344,-0.28291 -61.31555,-0.31324 -66.62755,-2.48879 -15.72012,-6.43822 -24.622865,-18.94254 -25.842945,-36.29761 -1.27599,-18.1505 7.135785,-32.56343 23.540885,-40.33548 l 6.67961,-3.16452 167.24739,-0.26151 c 167.04871,-0.26119 167.25471,-0.25904 173.41711,1.81691 11.0028,3.7066 19.016,10.72856 23.5537,20.64019 9.3065,20.32821 1.9218,45.74304 -15.9514,54.89693 -10.3939,5.32334 -11.5606,5.40748 -74.9769,5.40748 h -58.7899 v 193.89466 c 0,191.41302 -0.0257,193.97802 -2.01069,200.40452 -3.90948,12.6574 -15.70674,24.4147 -28.34005,28.244 -8.14946,2.4701 -21.0018,2.7888 -28.64926,0.7102 z"
       id="path2427" />
  </g>
</svg>
